<svg width="96" height="57" viewBox="0 0 96 57" fill="none" xmlns="http://www.w3.org/2000/svg">
    <path fill-rule="evenodd" clip-rule="evenodd"
          d="M95.6312 26.9614L95.6312 30.219L93.4613 30.219C90.9819 30.219 88.5953 30.7161 86.3655 31.6296C84.0615 32.5758 81.9245 33.9687 80.0248 35.7224C79.8845 35.8107 79.7443 35.9142 79.6102 36.0278C79.4658 36.1489 79.3255 36.2826 79.1914 36.429C78.9893 36.6535 78.783 36.8882 78.5747 37.133C78.3684 37.3752 78.1683 37.62 77.9724 37.8647C76.1015 40.0727 74.5462 42.6717 73.3932 45.5559C72.2731 48.3593 71.5347 51.4352 71.2603 54.6777L71.2108 55.1395L71.1655 55.6164C71.1613 55.6946 71.1428 55.7703 71.116 55.8385C71.0891 55.9091 71.052 55.9747 71.0087 56.0277C70.9633 56.0807 70.9117 56.1286 70.8519 56.1614C70.7962 56.1942 70.7344 56.217 70.6704 56.2245C70.5961 56.2346 70.524 56.2245 70.4559 56.1993C70.3858 56.1741 70.3197 56.1312 70.264 56.0756C70.2228 56.0353 70.1857 55.9823 70.1527 55.9243C70.1279 55.8788 70.1052 55.8258 70.0908 55.7728C69.901 52.1241 69.1275 48.6722 67.8816 45.5559C66.5924 42.326 64.7958 39.4544 62.6197 37.0926C62.4216 36.8605 62.2257 36.6384 62.0359 36.429L61.6646 36.0883L61.3078 35.7754C59.835 34.4078 58.2199 33.2546 56.4914 32.3639C54.802 31.4908 53.0074 30.865 51.1386 30.5218C50.5796 30.4133 50.0268 30.3326 49.4802 30.2771C48.9336 30.2241 48.3767 30.1963 47.8156 30.1938C47.2546 30.1963 46.6997 30.2241 46.151 30.2771C45.6044 30.3326 45.0516 30.4133 44.4946 30.5218C42.6258 30.865 40.8292 31.4908 39.1399 32.3639C37.4134 33.2546 35.7962 34.4078 34.3234 35.7754L33.9666 36.0883L33.5953 36.429C33.4055 36.6384 33.2116 36.8605 33.0116 37.0926C30.8354 39.4544 29.0388 42.326 27.7496 45.5559C26.5037 48.6722 25.7302 52.1241 25.5404 55.7728C25.526 55.8258 25.5033 55.8788 25.4786 55.9243C25.4456 55.9823 25.4084 56.0353 25.3692 56.0756C25.3115 56.1312 25.2475 56.1741 25.1774 56.1993C25.1093 56.2245 25.0351 56.2346 24.9608 56.2245C24.8969 56.217 24.835 56.1942 24.7793 56.1614C24.7195 56.1286 24.6679 56.0807 24.6246 56.0277C24.5792 55.9747 24.5421 55.9091 24.5153 55.8385C24.4885 55.7703 24.472 55.6946 24.4658 55.6164L24.4225 55.1395L24.3729 54.6777C24.0965 51.4352 23.3581 48.3593 22.238 45.5559C21.0871 42.6717 19.5297 40.0727 17.6588 37.8647C17.4649 37.62 17.2628 37.3752 17.0586 37.133C16.8482 36.8882 16.6419 36.6535 16.4398 36.429C16.3057 36.2826 16.1654 36.1489 16.0231 36.0278C15.887 35.9142 15.7488 35.8107 15.6085 35.7224C13.7087 33.9687 11.5718 32.5758 9.26568 31.6296C7.03589 30.7161 4.64934 30.219 2.16997 30.219L2.30884e-07 30.219L2.05184e-07 26.9614L2.16997 26.9614C4.64934 26.9614 7.03589 26.4643 9.26568 25.5509C11.5718 24.6046 13.7087 23.2143 15.6085 21.458C15.7467 21.3697 15.887 21.2688 16.0231 21.1552C16.1654 21.0316 16.3057 20.9004 16.4398 20.7515C16.6419 20.5294 16.8482 20.2922 17.0586 20.0475C17.2628 19.8052 17.4649 19.5605 17.6588 19.3157C19.5297 17.1103 21.0871 14.5088 22.238 11.6246C23.3581 8.82368 24.0965 5.74774 24.3729 2.50273L24.4225 2.04096L24.4658 1.56405C24.472 1.48835 24.4885 1.41265 24.5153 1.342C24.5421 1.27387 24.5792 1.20826 24.6246 1.15275C24.6679 1.09976 24.7195 1.05434 24.7793 1.01901C24.835 0.986206 24.8969 0.963496 24.9608 0.955926C25.0351 0.948356 25.1093 0.955926 25.1774 0.981159C25.2475 1.00892 25.3115 1.05181 25.3692 1.1048C25.4084 1.1477 25.4456 1.19817 25.4786 1.2562C25.5033 1.30162 25.526 1.35461 25.5404 1.4076C25.7302 5.05634 26.5037 8.50827 27.7496 11.6271C29.0388 14.8545 30.8354 17.726 33.0116 20.0878C33.2116 20.32 33.4055 20.542 33.5953 20.7515L33.9666 21.0921L34.3234 21.405C35.7962 22.7752 37.4134 23.9258 39.1399 24.8191C40.8292 25.6922 42.6258 26.318 44.4946 26.6586C45.0516 26.7671 45.6044 26.8504 46.151 26.9034C46.6997 26.9564 47.2546 26.9866 47.8156 26.9866C48.3767 26.9866 48.9336 26.9564 49.4802 26.9034C50.0268 26.8504 50.5796 26.7671 51.1386 26.6586C53.0074 26.318 54.802 25.6922 56.4914 24.8191C58.2199 23.9258 59.835 22.7752 61.3078 21.405L61.6646 21.0921L62.0359 20.7515C62.2277 20.5421 62.4216 20.3225 62.6197 20.0878C64.7958 17.726 66.5924 14.8545 67.8816 11.6271C69.1275 8.50827 69.901 5.05635 70.0908 1.4076C70.1052 1.35461 70.1279 1.30162 70.1527 1.2562C70.1857 1.19817 70.2228 1.1477 70.264 1.1048C70.3197 1.05181 70.3857 1.00892 70.4559 0.98116C70.524 0.955926 70.5961 0.948356 70.6704 0.955926C70.7344 0.963496 70.7962 0.986206 70.8519 1.01901C70.9117 1.05434 70.9633 1.09976 71.0087 1.15275C71.052 1.20826 71.0891 1.27387 71.116 1.34452C71.1428 1.41265 71.1613 1.48835 71.1655 1.56405L71.2108 2.04096L71.2603 2.50273C71.5347 5.74774 72.2731 8.82368 73.3932 11.6246C74.5462 14.5088 76.1015 17.1103 77.9724 19.3157C78.1683 19.5605 78.3684 19.8052 78.5747 20.0475C78.783 20.2922 78.9893 20.5294 79.1914 20.7515C79.3255 20.9004 79.4658 21.0316 79.6102 21.1552C79.7463 21.2688 79.8845 21.3697 80.0248 21.458C81.9245 23.2143 84.0615 24.6046 86.3655 25.5509C88.5953 26.4643 90.9819 26.9614 93.4613 26.9614L95.6312 26.9614Z"
          fill="#00FF00"/>
</svg>
